# MagicaVoxel @ Ephtracy

# material
mtllib tnt_enemy.mtl
usemtl palette

# normals
vn -1 0 0
vn 1 0 0
vn 0 0 1
vn 0 0 -1
vn 0 -1 0
vn 0 1 0

# texcoords
vt 0.974609 0.5
vt 0.978516 0.5
vt 0.982422 0.5

# verts
v -5 0 0.5
v -5 0 -5.5
v -5 1 0.5
v -5 1 -4.5
v -5 1 -5.5
v -5 2 2.5
v -5 2 0.5
v -5 2 -4.5
v -5 2 -6.5
v -5 3 0.5
v -5 3 -4.5
v -5 4 1.5
v -5 4 0.5
v -5 4 -0.5
v -5 4 -3.5
v -5 4 -4.5
v -5 4 -5.5
v -5 5 0.5
v -5 5 -0.5
v -5 5 -1.5
v -5 5 -2.5
v -5 5 -3.5
v -5 5 -4.5
v -5 6 -0.5
v -5 6 -1.5
v -5 6 -2.5
v -5 6 -3.5
v -5 7 -0.5
v -5 7 -1.5
v -5 7 -2.5
v -5 7 -3.5
v -5 8 0.5
v -5 8 -0.5
v -5 8 -1.5
v -5 8 -2.5
v -5 8 -3.5
v -5 8 -4.5
v -5 9 1.5
v -5 9 0.5
v -5 9 -0.5
v -5 9 -3.5
v -5 9 -4.5
v -5 9 -5.5
v -5 10 0.5
v -5 10 -4.5
v -5 11 2.5
v -5 11 -6.5
v -4 1 1.5
v -4 1 0.5
v -4 2 1.5
v -4 2 0.5
v -2 4 6.5
v -2 4 5.5
v -2 6 6.5
v -2 6 5.5
v -1 2 5.5
v -1 2 2.5
v -1 3 6.5
v -1 3 5.5
v -1 3 3.5
v -1 3 2.5
v -1 4 6.5
v -1 4 5.5
v -1 4 4.5
v -1 4 3.5
v -1 5 5.5
v -1 5 4.5
v 1 1 1.5
v 1 1 0.5
v 1 1 -2.5
v 1 1 -3.5
v 1 2 1.5
v 1 2 0.5
v 1 2 -2.5
v 1 2 -3.5
v 2 0 0.5
v 2 0 -4.5
v 2 0 -5.5
v 2 1 0.5
v 2 1 -3.5
v 2 1 -4.5
v 2 1 -5.5
v 2 2 -3.5
v 2 2 -4.5
v -2 0 0.5
v -2 0 -4.5
v -2 0 -5.5
v -2 1 0.5
v -2 1 -3.5
v -2 1 -4.5
v -2 1 -5.5
v -2 2 -3.5
v -2 2 -4.5
v -1 1 1.5
v -1 1 0.5
v -1 1 -2.5
v -1 1 -3.5
v -1 2 1.5
v -1 2 0.5
v -1 2 -2.5
v -1 2 -3.5
v 1 2 5.5
v 1 2 2.5
v 1 3 6.5
v 1 3 5.5
v 1 3 3.5
v 1 3 2.5
v 1 4 6.5
v 1 4 5.5
v 1 4 4.5
v 1 4 3.5
v 1 5 5.5
v 1 5 4.5
v 2 4 6.5
v 2 4 5.5
v 2 6 6.5
v 2 6 5.5
v 4 1 1.5
v 4 1 0.5
v 4 2 1.5
v 4 2 0.5
v 5 0 0.5
v 5 0 -5.5
v 5 1 0.5
v 5 1 -4.5
v 5 1 -5.5
v 5 2 2.5
v 5 2 0.5
v 5 2 -4.5
v 5 2 -6.5
v 5 3 0.5
v 5 3 -4.5
v 5 4 1.5
v 5 4 0.5
v 5 4 -0.5
v 5 4 -3.5
v 5 4 -4.5
v 5 4 -5.5
v 5 5 0.5
v 5 5 -0.5
v 5 5 -1.5
v 5 5 -2.5
v 5 5 -3.5
v 5 5 -4.5
v 5 6 -0.5
v 5 6 -1.5
v 5 6 -2.5
v 5 6 -3.5
v 5 7 -0.5
v 5 7 -1.5
v 5 7 -2.5
v 5 7 -3.5
v 5 8 0.5
v 5 8 -0.5
v 5 8 -1.5
v 5 8 -2.5
v 5 8 -3.5
v 5 8 -4.5
v 5 9 1.5
v 5 9 0.5
v 5 9 -0.5
v 5 9 -3.5
v 5 9 -4.5
v 5 9 -5.5
v 5 10 0.5
v 5 10 -4.5
v 5 11 2.5
v 5 11 -6.5
v -2 4 6.5
v -2 6 6.5
v -1 3 6.5
v -1 4 6.5
v -1 6 6.5
v 1 3 6.5
v 1 4 6.5
v 1 6 6.5
v 2 4 6.5
v 2 6 6.5
v -1 2 5.5
v -1 3 5.5
v 1 2 5.5
v 1 3 5.5
v -5 2 2.5
v -5 11 2.5
v -4 4 2.5
v -4 9 2.5
v -3 3 2.5
v -3 4 2.5
v -3 5 2.5
v -3 8 2.5
v -3 9 2.5
v -3 10 2.5
v -2 4 2.5
v -2 5 2.5
v -2 6 2.5
v -2 7 2.5
v -2 8 2.5
v -2 9 2.5
v -1 2 2.5
v -1 3 2.5
v -1 5 2.5
v -1 6 2.5
v -1 7 2.5
v -1 8 2.5
v 1 2 2.5
v 1 3 2.5
v 1 5 2.5
v 1 6 2.5
v 1 7 2.5
v 1 8 2.5
v 2 4 2.5
v 2 5 2.5
v 2 6 2.5
v 2 7 2.5
v 2 8 2.5
v 2 9 2.5
v 3 3 2.5
v 3 4 2.5
v 3 5 2.5
v 3 8 2.5
v 3 9 2.5
v 3 10 2.5
v 4 4 2.5
v 4 9 2.5
v 5 2 2.5
v 5 11 2.5
v -4 1 1.5
v -4 2 1.5
v -1 1 1.5
v -1 2 1.5
v 1 1 1.5
v 1 2 1.5
v 4 1 1.5
v 4 2 1.5
v -5 0 0.5
v -5 1 0.5
v -5 2 0.5
v -4 0 0.5
v -4 1 0.5
v -4 2 0.5
v -2 0 0.5
v -2 1 0.5
v -1 1 0.5
v -1 2 0.5
v 1 1 0.5
v 1 2 0.5
v 2 0 0.5
v 2 1 0.5
v 4 0 0.5
v 4 1 0.5
v 4 2 0.5
v 5 0 0.5
v 5 1 0.5
v 5 2 0.5
v -2 4 5.5
v -2 6 5.5
v -1 4 5.5
v -1 5 5.5
v -1 6 5.5
v 1 4 5.5
v 1 5 5.5
v 1 6 5.5
v 2 4 5.5
v 2 6 5.5
v -1 4 4.5
v -1 5 4.5
v 1 4 4.5
v 1 5 4.5
v -1 3 3.5
v -1 4 3.5
v 1 3 3.5
v 1 4 3.5
v -1 1 -2.5
v -1 2 -2.5
v 1 1 -2.5
v 1 2 -2.5
v -2 1 -3.5
v -2 2 -3.5
v -1 1 -3.5
v -1 2 -3.5
v 1 1 -3.5
v 1 2 -3.5
v 2 1 -3.5
v 2 2 -3.5
v -5 1 -4.5
v -5 2 -4.5
v -4 2 -4.5
v -2 1 -4.5
v -2 2 -4.5
v 2 1 -4.5
v 2 2 -4.5
v 4 2 -4.5
v 5 1 -4.5
v 5 2 -4.5
v -5 0 -5.5
v -5 1 -5.5
v -2 0 -5.5
v -2 1 -5.5
v 2 0 -5.5
v 2 1 -5.5
v 5 0 -5.5
v 5 1 -5.5
v -5 2 -6.5
v -5 11 -6.5
v -4 3 -6.5
v -4 10 -6.5
v -3 6 -6.5
v -3 8 -6.5
v -3 9 -6.5
v -2 7 -6.5
v -2 8 -6.5
v -1 4 -6.5
v -1 5 -6.5
v -1 6 -6.5
v -1 7 -6.5
v -1 9 -6.5
v 1 4 -6.5
v 1 5 -6.5
v 1 6 -6.5
v 1 7 -6.5
v 1 9 -6.5
v 2 7 -6.5
v 2 8 -6.5
v 3 6 -6.5
v 3 8 -6.5
v 3 9 -6.5
v 4 3 -6.5
v 4 10 -6.5
v 5 2 -6.5
v 5 11 -6.5
v -5 0 0.5
v -4 0 0.5
v -2 0 0.5
v 2 0 0.5
v 4 0 0.5
v 5 0 0.5
v -4 0 -4.5
v -2 0 -4.5
v 2 0 -4.5
v 4 0 -4.5
v -5 0 -5.5
v -2 0 -5.5
v 2 0 -5.5
v 5 0 -5.5
v -4 1 1.5
v -1 1 1.5
v 1 1 1.5
v 4 1 1.5
v -4 1 0.5
v -2 1 0.5
v -1 1 0.5
v 1 1 0.5
v 2 1 0.5
v 4 1 0.5
v -1 1 -2.5
v 1 1 -2.5
v -2 1 -3.5
v -1 1 -3.5
v 1 1 -3.5
v 2 1 -3.5
v -1 2 5.5
v 1 2 5.5
v -5 2 2.5
v -1 2 2.5
v 1 2 2.5
v 5 2 2.5
v -4 2 1.5
v -1 2 1.5
v 1 2 1.5
v 4 2 1.5
v -5 2 0.5
v -4 2 0.5
v -1 2 0.5
v 1 2 0.5
v 4 2 0.5
v 5 2 0.5
v -1 2 -2.5
v 1 2 -2.5
v -2 2 -3.5
v -1 2 -3.5
v 1 2 -3.5
v 2 2 -3.5
v -5 2 -4.5
v -4 2 -4.5
v -2 2 -4.5
v 2 2 -4.5
v 4 2 -4.5
v 5 2 -4.5
v -4 2 -5.5
v 4 2 -5.5
v -5 2 -6.5
v 5 2 -6.5
v -1 3 6.5
v 1 3 6.5
v -1 3 5.5
v 1 3 5.5
v -2 4 6.5
v -1 4 6.5
v 1 4 6.5
v 2 4 6.5
v -2 4 5.5
v -1 4 5.5
v 1 4 5.5
v 2 4 5.5
v -5 1 -4.5
v -2 1 -4.5
v 2 1 -4.5
v 5 1 -4.5
v -5 1 -5.5
v -2 1 -5.5
v 2 1 -5.5
v 5 1 -5.5
v -1 3 3.5
v 1 3 3.5
v -1 3 2.5
v 1 3 2.5
v -1 4 4.5
v 1 4 4.5
v -1 4 3.5
v 1 4 3.5
v -1 5 5.5
v 1 5 5.5
v -1 5 4.5
v 1 5 4.5
v -2 6 6.5
v -1 6 6.5
v 1 6 6.5
v 2 6 6.5
v -2 6 5.5
v -1 6 5.5
v 1 6 5.5
v 2 6 5.5
v -5 11 2.5
v 5 11 2.5
v -3 11 1.5
v 3 11 1.5
v -4 11 0.5
v -3 11 0.5
v -2 11 0.5
v 2 11 0.5
v 3 11 0.5
v 4 11 0.5
v -3 11 -0.5
v -2 11 -0.5
v -1 11 -0.5
v 1 11 -0.5
v 2 11 -0.5
v 3 11 -0.5
v -2 11 -1.5
v -1 11 -1.5
v 1 11 -1.5
v 2 11 -1.5
v -2 11 -2.5
v -1 11 -2.5
v 1 11 -2.5
v 2 11 -2.5
v -3 11 -3.5
v -2 11 -3.5
v -1 11 -3.5
v 1 11 -3.5
v 2 11 -3.5
v 3 11 -3.5
v -4 11 -4.5
v -3 11 -4.5
v -2 11 -4.5
v 2 11 -4.5
v 3 11 -4.5
v 4 11 -4.5
v -3 11 -5.5
v 3 11 -5.5
v -5 11 -6.5
v 5 11 -6.5

# faces
f 3/2/1 2/2/1 1/2/1
f 4/2/1 2/2/1 3/2/1
f 5/2/1 2/2/1 4/2/1
f 7/1/1 4/1/1 3/1/1
f 8/1/1 4/1/1 7/1/1
f 10/2/1 8/2/1 7/2/1
f 10/2/1 9/2/1 8/2/1
f 10/2/1 7/2/1 6/2/1
f 11/2/1 9/2/1 10/2/1
f 12/2/1 10/2/1 6/2/1
f 13/1/1 11/1/1 10/1/1
f 13/2/1 10/2/1 12/2/1
f 14/1/1 11/1/1 13/1/1
f 15/1/1 11/1/1 14/1/1
f 16/2/1 9/2/1 11/2/1
f 16/1/1 11/1/1 15/1/1
f 17/2/1 9/2/1 16/2/1
f 18/1/1 13/1/1 12/1/1
f 18/2/1 14/2/1 13/2/1
f 19/1/1 15/1/1 14/1/1
f 19/2/1 14/2/1 18/2/1
f 20/1/1 15/1/1 19/1/1
f 21/1/1 15/1/1 20/1/1
f 22/2/1 16/2/1 15/2/1
f 22/1/1 15/1/1 21/1/1
f 23/1/1 17/1/1 16/1/1
f 23/2/1 16/2/1 22/2/1
f 24/1/1 19/1/1 18/1/1
f 24/2/1 20/2/1 19/2/1
f 25/1/1 21/1/1 20/1/1
f 25/2/1 20/2/1 24/2/1
f 26/2/1 22/2/1 21/2/1
f 26/1/1 21/1/1 25/1/1
f 27/1/1 23/1/1 22/1/1
f 27/2/1 22/2/1 26/2/1
f 28/1/1 25/1/1 24/1/1
f 28/1/1 24/1/1 18/1/1
f 29/2/1 26/2/1 25/2/1
f 29/1/1 25/1/1 28/1/1
f 30/1/1 27/1/1 26/1/1
f 30/2/1 26/2/1 29/2/1
f 31/1/1 23/1/1 27/1/1
f 31/1/1 27/1/1 30/1/1
f 32/1/1 18/1/1 12/1/1
f 32/1/1 28/1/1 18/1/1
f 33/2/1 29/2/1 28/2/1
f 33/1/1 28/1/1 32/1/1
f 34/1/1 30/1/1 29/1/1
f 34/2/1 29/2/1 33/2/1
f 35/2/1 31/2/1 30/2/1
f 35/1/1 30/1/1 34/1/1
f 36/1/1 23/1/1 31/1/1
f 36/2/1 31/2/1 35/2/1
f 37/1/1 17/1/1 23/1/1
f 37/1/1 23/1/1 36/1/1
f 38/2/1 12/2/1 6/2/1
f 38/1/1 32/1/1 12/1/1
f 39/2/1 33/2/1 32/2/1
f 39/1/1 32/1/1 38/1/1
f 40/1/1 35/1/1 34/1/1
f 40/2/1 33/2/1 39/2/1
f 40/1/1 36/1/1 35/1/1
f 40/1/1 34/1/1 33/1/1
f 41/2/1 37/2/1 36/2/1
f 41/1/1 36/1/1 40/1/1
f 42/1/1 17/1/1 37/1/1
f 42/2/1 37/2/1 41/2/1
f 43/2/1 9/2/1 17/2/1
f 43/1/1 17/1/1 42/1/1
f 44/2/1 39/2/1 38/2/1
f 44/1/1 41/1/1 40/1/1
f 44/1/1 42/1/1 41/1/1
f 44/1/1 40/1/1 39/1/1
f 45/2/1 43/2/1 42/2/1
f 45/1/1 42/1/1 44/1/1
f 46/2/1 44/2/1 38/2/1
f 46/2/1 38/2/1 6/2/1
f 46/2/1 45/2/1 44/2/1
f 47/2/1 9/2/1 43/2/1
f 47/2/1 45/2/1 46/2/1
f 47/2/1 43/2/1 45/2/1
f 50/1/1 49/1/1 48/1/1
f 51/1/1 49/1/1 50/1/1
f 54/2/1 53/2/1 52/2/1
f 55/2/1 53/2/1 54/2/1
f 59/2/1 57/2/1 56/2/1
f 60/2/1 57/2/1 59/2/1
f 61/2/1 57/2/1 60/2/1
f 62/1/1 59/1/1 58/1/1
f 63/2/1 60/2/1 59/2/1
f 63/1/1 59/1/1 62/1/1
f 64/2/1 60/2/1 63/2/1
f 65/2/1 60/2/1 64/2/1
f 66/2/1 64/2/1 63/2/1
f 67/2/1 64/2/1 66/2/1
f 72/1/1 69/1/1 68/1/1
f 73/1/1 69/1/1 72/1/1
f 74/1/1 71/1/1 70/1/1
f 75/1/1 71/1/1 74/1/1
f 79/1/1 77/1/1 76/1/1
f 80/1/1 77/1/1 79/1/1
f 81/2/1 78/2/1 77/2/1
f 81/1/1 77/1/1 80/1/1
f 82/2/1 78/2/1 81/2/1
f 83/1/1 81/1/1 80/1/1
f 84/1/1 81/1/1 83/1/1
f 85/1/2 86/1/2 88/1/2
f 88/1/2 86/1/2 89/1/2
f 86/2/2 87/2/2 90/2/2
f 89/1/2 86/1/2 90/1/2
f 90/2/2 87/2/2 91/2/2
f 89/1/2 90/1/2 92/1/2
f 92/1/2 90/1/2 93/1/2
f 94/1/2 95/1/2 98/1/2
f 98/1/2 95/1/2 99/1/2
f 96/1/2 97/1/2 100/1/2
f 100/1/2 97/1/2 101/1/2
f 102/2/2 103/2/2 105/2/2
f 105/2/2 103/2/2 106/2/2
f 106/2/2 103/2/2 107/2/2
f 104/1/2 105/1/2 108/1/2
f 105/2/2 106/2/2 109/2/2
f 108/1/2 105/1/2 109/1/2
f 109/2/2 106/2/2 110/2/2
f 110/2/2 106/2/2 111/2/2
f 109/2/2 110/2/2 112/2/2
f 112/2/2 110/2/2 113/2/2
f 114/2/2 115/2/2 116/2/2
f 116/2/2 115/2/2 117/2/2
f 118/1/2 119/1/2 120/1/2
f 120/1/2 119/1/2 121/1/2
f 122/2/2 123/2/2 124/2/2
f 124/2/2 123/2/2 125/2/2
f 125/2/2 123/2/2 126/2/2
f 124/1/2 125/1/2 128/1/2
f 128/1/2 125/1/2 129/1/2
f 128/2/2 129/2/2 131/2/2
f 129/2/2 130/2/2 131/2/2
f 127/2/2 128/2/2 131/2/2
f 131/2/2 130/2/2 132/2/2
f 127/2/2 131/2/2 133/2/2
f 131/1/2 132/1/2 134/1/2
f 133/2/2 131/2/2 134/2/2
f 134/1/2 132/1/2 135/1/2
f 135/1/2 132/1/2 136/1/2
f 132/2/2 130/2/2 137/2/2
f 136/1/2 132/1/2 137/1/2
f 137/2/2 130/2/2 138/2/2
f 133/1/2 134/1/2 139/1/2
f 134/2/2 135/2/2 139/2/2
f 135/1/2 136/1/2 140/1/2
f 139/2/2 135/2/2 140/2/2
f 140/1/2 136/1/2 141/1/2
f 141/1/2 136/1/2 142/1/2
f 136/2/2 137/2/2 143/2/2
f 142/1/2 136/1/2 143/1/2
f 137/1/2 138/1/2 144/1/2
f 143/2/2 137/2/2 144/2/2
f 139/1/2 140/1/2 145/1/2
f 140/2/2 141/2/2 145/2/2
f 141/1/2 142/1/2 146/1/2
f 145/2/2 141/2/2 146/2/2
f 142/2/2 143/2/2 147/2/2
f 146/1/2 142/1/2 147/1/2
f 143/1/2 144/1/2 148/1/2
f 147/2/2 143/2/2 148/2/2
f 145/1/2 146/1/2 149/1/2
f 139/1/2 145/1/2 149/1/2
f 146/2/2 147/2/2 150/2/2
f 149/1/2 146/1/2 150/1/2
f 147/1/2 148/1/2 151/1/2
f 150/2/2 147/2/2 151/2/2
f 148/1/2 144/1/2 152/1/2
f 151/1/2 148/1/2 152/1/2
f 133/1/2 139/1/2 153/1/2
f 139/1/2 149/1/2 153/1/2
f 149/2/2 150/2/2 154/2/2
f 153/1/2 149/1/2 154/1/2
f 150/1/2 151/1/2 155/1/2
f 154/2/2 150/2/2 155/2/2
f 151/2/2 152/2/2 156/2/2
f 155/1/2 151/1/2 156/1/2
f 152/1/2 144/1/2 157/1/2
f 156/2/2 152/2/2 157/2/2
f 144/1/2 138/1/2 158/1/2
f 157/1/2 144/1/2 158/1/2
f 127/2/2 133/2/2 159/2/2
f 133/1/2 153/1/2 159/1/2
f 153/2/2 154/2/2 160/2/2
f 159/1/2 153/1/2 160/1/2
f 155/1/2 156/1/2 161/1/2
f 160/2/2 154/2/2 161/2/2
f 156/1/2 157/1/2 161/1/2
f 154/1/2 155/1/2 161/1/2
f 157/2/2 158/2/2 162/2/2
f 161/1/2 157/1/2 162/1/2
f 158/1/2 138/1/2 163/1/2
f 162/2/2 158/2/2 163/2/2
f 138/2/2 130/2/2 164/2/2
f 163/1/2 138/1/2 164/1/2
f 159/2/2 160/2/2 165/2/2
f 161/1/2 162/1/2 165/1/2
f 162/1/2 163/1/2 165/1/2
f 160/1/2 161/1/2 165/1/2
f 163/2/2 164/2/2 166/2/2
f 165/1/2 163/1/2 166/1/2
f 159/2/2 165/2/2 167/2/2
f 127/2/2 159/2/2 167/2/2
f 165/2/2 166/2/2 167/2/2
f 164/2/2 130/2/2 168/2/2
f 167/2/2 166/2/2 168/2/2
f 166/2/2 164/2/2 168/2/2
f 172/2/3 170/2/3 169/2/3
f 173/2/3 170/2/3 172/2/3
f 174/1/3 172/1/3 171/1/3
f 174/1/3 173/1/3 172/1/3
f 175/1/3 173/1/3 174/1/3
f 176/1/3 173/1/3 175/1/3
f 177/2/3 176/2/3 175/2/3
f 178/2/3 176/2/3 177/2/3
f 181/2/3 180/2/3 179/2/3
f 182/2/3 180/2/3 181/2/3
f 185/2/3 184/2/3 183/2/3
f 186/2/3 184/2/3 185/2/3
f 187/2/3 185/2/3 183/2/3
f 188/1/3 186/1/3 185/1/3
f 188/2/3 185/2/3 187/2/3
f 189/1/3 186/1/3 188/1/3
f 190/1/3 186/1/3 189/1/3
f 191/2/3 184/2/3 186/2/3
f 191/1/3 186/1/3 190/1/3
f 192/2/3 184/2/3 191/2/3
f 193/1/3 188/1/3 187/1/3
f 193/2/3 189/2/3 188/2/3
f 194/1/3 190/1/3 189/1/3
f 194/2/3 189/2/3 193/2/3
f 195/1/3 190/1/3 194/1/3
f 196/1/3 190/1/3 195/1/3
f 197/2/3 191/2/3 190/2/3
f 197/1/3 190/1/3 196/1/3
f 198/1/3 192/1/3 191/1/3
f 198/2/3 191/2/3 197/2/3
f 199/2/3 187/2/3 183/2/3
f 200/1/3 193/1/3 187/1/3
f 200/2/3 187/2/3 199/2/3
f 200/1/3 194/1/3 193/1/3
f 201/2/3 195/2/3 194/2/3
f 201/1/3 194/1/3 200/1/3
f 202/1/3 196/1/3 195/1/3
f 202/2/3 195/2/3 201/2/3
f 203/2/3 197/2/3 196/2/3
f 203/1/3 196/1/3 202/1/3
f 204/1/3 198/1/3 197/1/3
f 204/2/3 197/2/3 203/2/3
f 206/1/3 202/1/3 201/1/3
f 206/1/3 201/1/3 200/1/3
f 207/1/3 202/1/3 206/1/3
f 208/2/3 203/2/3 202/2/3
f 208/1/3 202/1/3 207/1/3
f 209/1/3 204/1/3 203/1/3
f 209/2/3 203/2/3 208/2/3
f 210/1/3 198/1/3 204/1/3
f 210/1/3 204/1/3 209/1/3
f 211/1/3 207/1/3 206/1/3
f 212/2/3 208/2/3 207/2/3
f 212/1/3 207/1/3 211/1/3
f 213/1/3 209/1/3 208/1/3
f 213/2/3 208/2/3 212/2/3
f 214/2/3 210/2/3 209/2/3
f 214/1/3 209/1/3 213/1/3
f 215/1/3 198/1/3 210/1/3
f 215/2/3 210/2/3 214/2/3
f 216/1/3 192/1/3 198/1/3
f 216/1/3 198/1/3 215/1/3
f 217/1/3 211/1/3 206/1/3
f 217/2/3 206/2/3 205/2/3
f 218/2/3 212/2/3 211/2/3
f 218/1/3 211/1/3 217/1/3
f 219/1/3 215/1/3 214/1/3
f 219/2/3 212/2/3 218/2/3
f 219/1/3 214/1/3 213/1/3
f 219/1/3 213/1/3 212/1/3
f 220/2/3 216/2/3 215/2/3
f 220/1/3 215/1/3 219/1/3
f 221/1/3 192/1/3 216/1/3
f 221/2/3 216/2/3 220/2/3
f 222/2/3 184/2/3 192/2/3
f 222/1/3 192/1/3 221/1/3
f 223/2/3 218/2/3 217/2/3
f 223/1/3 221/1/3 220/1/3
f 223/1/3 220/1/3 219/1/3
f 223/1/3 219/1/3 218/1/3
f 224/2/3 222/2/3 221/2/3
f 224/1/3 221/1/3 223/1/3
f 225/2/3 223/2/3 217/2/3
f 225/2/3 217/2/3 205/2/3
f 225/2/3 224/2/3 223/2/3
f 226/2/3 184/2/3 222/2/3
f 226/2/3 224/2/3 225/2/3
f 226/2/3 222/2/3 224/2/3
f 229/1/3 228/1/3 227/1/3
f 230/1/3 228/1/3 229/1/3
f 233/1/3 232/1/3 231/1/3
f 234/1/3 232/1/3 233/1/3
f 238/2/3 236/2/3 235/2/3
f 239/1/3 237/1/3 236/1/3
f 239/2/3 236/2/3 238/2/3
f 240/1/3 237/1/3 239/1/3
f 241/1/3 239/1/3 238/1/3
f 242/1/3 239/1/3 241/1/3
f 245/1/3 244/1/3 243/1/3
f 246/1/3 244/1/3 245/1/3
f 249/1/3 248/1/3 247/1/3
f 250/1/3 248/1/3 249/1/3
f 252/2/3 250/2/3 249/2/3
f 253/1/3 251/1/3 250/1/3
f 253/2/3 250/2/3 252/2/3
f 254/1/3 251/1/3 253/1/3
f 255/2/4 256/2/4 257/2/4
f 257/2/4 256/2/4 258/2/4
f 258/2/4 256/2/4 259/2/4
f 258/1/4 259/1/4 261/1/4
f 261/1/4 259/1/4 262/1/4
f 260/2/4 261/2/4 263/2/4
f 261/2/4 262/2/4 263/2/4
f 263/2/4 262/2/4 264/2/4
f 265/2/4 266/2/4 267/2/4
f 267/2/4 266/2/4 268/2/4
f 269/2/4 270/2/4 271/2/4
f 271/2/4 270/2/4 272/2/4
f 273/1/4 274/1/4 275/1/4
f 275/1/4 274/1/4 276/1/4
f 277/1/4 278/1/4 279/1/4
f 279/1/4 278/1/4 280/1/4
f 281/1/4 282/1/4 283/1/4
f 283/1/4 282/1/4 284/1/4
f 285/1/4 286/1/4 287/1/4
f 285/1/4 287/1/4 288/1/4
f 288/1/4 287/1/4 289/1/4
f 290/1/4 291/1/4 292/1/4
f 290/1/4 292/1/4 293/1/4
f 293/1/4 292/1/4 294/1/4
f 295/2/4 296/2/4 297/2/4
f 297/2/4 296/2/4 298/2/4
f 299/2/4 300/2/4 301/2/4
f 301/2/4 300/2/4 302/2/4
f 303/2/4 304/2/4 305/2/4
f 305/2/4 304/2/4 306/2/4
f 305/1/4 306/1/4 307/1/4
f 307/1/4 306/1/4 308/1/4
f 308/1/4 306/1/4 309/1/4
f 307/3/4 308/3/4 310/3/4
f 308/2/4 309/2/4 311/2/4
f 310/3/4 308/3/4 311/3/4
f 305/1/4 307/1/4 312/1/4
f 312/1/4 307/1/4 313/1/4
f 307/3/4 310/3/4 314/3/4
f 313/1/4 307/1/4 314/1/4
f 310/2/4 311/2/4 315/2/4
f 314/3/4 310/3/4 315/3/4
f 311/2/4 309/2/4 316/2/4
f 315/2/4 311/2/4 316/2/4
f 309/1/4 306/1/4 316/1/4
f 305/1/4 312/1/4 317/1/4
f 312/3/4 313/3/4 317/3/4
f 314/1/4 315/1/4 318/1/4
f 317/3/4 313/3/4 318/3/4
f 315/1/4 316/1/4 318/1/4
f 313/1/4 314/1/4 318/1/4
f 318/1/4 316/1/4 319/1/4
f 319/1/4 316/1/4 320/1/4
f 316/1/4 306/1/4 321/1/4
f 320/1/4 316/1/4 321/1/4
f 319/3/4 320/3/4 322/3/4
f 320/2/4 321/2/4 322/2/4
f 322/2/4 321/2/4 323/2/4
f 317/1/4 318/1/4 324/1/4
f 318/1/4 319/1/4 324/1/4
f 322/3/4 323/3/4 324/3/4
f 319/3/4 322/3/4 324/3/4
f 323/2/4 321/2/4 325/2/4
f 324/3/4 323/3/4 325/3/4
f 321/1/4 306/1/4 326/1/4
f 325/2/4 321/2/4 326/2/4
f 303/2/4 305/2/4 327/2/4
f 305/1/4 317/1/4 327/1/4
f 325/1/4 326/1/4 327/1/4
f 317/1/4 324/1/4 327/1/4
f 324/1/4 325/1/4 327/1/4
f 326/1/4 306/1/4 328/1/4
f 327/1/4 326/1/4 328/1/4
f 306/2/4 304/2/4 328/2/4
f 303/2/4 327/2/4 329/2/4
f 327/2/4 328/2/4 329/2/4
f 328/2/4 304/2/4 330/2/4
f 329/2/4 328/2/4 330/2/4
f 337/2/5 332/2/5 331/2/5
f 337/1/5 333/1/5 332/1/5
f 338/1/5 333/1/5 337/1/5
f 339/1/5 335/1/5 334/1/5
f 340/2/5 336/2/5 335/2/5
f 340/1/5 335/1/5 339/1/5
f 341/2/5 338/2/5 337/2/5
f 341/2/5 337/2/5 331/2/5
f 342/2/5 338/2/5 341/2/5
f 343/2/5 340/2/5 339/2/5
f 344/2/5 336/2/5 340/2/5
f 344/2/5 340/2/5 343/2/5
f 349/1/5 346/1/5 345/1/5
f 350/1/5 346/1/5 349/1/5
f 351/1/5 346/1/5 350/1/5
f 352/1/5 348/1/5 347/1/5
f 353/1/5 348/1/5 352/1/5
f 354/1/5 348/1/5 353/1/5
f 355/1/5 351/1/5 350/1/5
f 355/1/5 353/1/5 352/1/5
f 355/1/5 352/1/5 351/1/5
f 356/1/5 353/1/5 355/1/5
f 357/1/5 355/1/5 350/1/5
f 358/1/5 355/1/5 357/1/5
f 359/1/5 353/1/5 356/1/5
f 360/1/5 353/1/5 359/1/5
f 364/2/5 362/2/5 361/2/5
f 365/2/5 362/2/5 364/2/5
f 367/2/5 364/2/5 363/2/5
f 367/2/5 366/2/5 365/2/5
f 367/2/5 365/2/5 364/2/5
f 368/2/5 366/2/5 367/2/5
f 369/2/5 366/2/5 368/2/5
f 370/2/5 366/2/5 369/2/5
f 371/2/5 367/2/5 363/2/5
f 372/2/5 367/2/5 371/2/5
f 373/1/5 369/1/5 368/1/5
f 374/1/5 369/1/5 373/1/5
f 375/2/5 366/2/5 370/2/5
f 376/2/5 366/2/5 375/2/5
f 380/1/5 378/1/5 377/1/5
f 381/1/5 378/1/5 380/1/5
f 385/1/5 380/1/5 379/1/5
f 385/1/5 381/1/5 380/1/5
f 385/1/5 382/1/5 381/1/5
f 386/1/5 382/1/5 385/1/5
f 389/2/5 384/2/5 383/2/5
f 389/1/5 385/1/5 384/1/5
f 389/1/5 387/1/5 386/1/5
f 389/1/5 386/1/5 385/1/5
f 390/2/5 388/2/5 387/2/5
f 390/1/5 387/1/5 389/1/5
f 391/2/5 389/2/5 383/2/5
f 391/2/5 390/2/5 389/2/5
f 392/2/5 388/2/5 390/2/5
f 392/2/5 390/2/5 391/2/5
f 395/1/5 394/1/5 393/1/5
f 396/1/5 394/1/5 395/1/5
f 401/2/5 398/2/5 397/2/5
f 402/2/5 398/2/5 401/2/5
f 403/2/5 400/2/5 399/2/5
f 404/2/5 400/2/5 403/2/5
f 405/2/6 406/2/6 409/2/6
f 409/2/6 406/2/6 410/2/6
f 407/2/6 408/2/6 411/2/6
f 411/2/6 408/2/6 412/2/6
f 413/2/6 414/2/6 415/2/6
f 415/2/6 414/2/6 416/2/6
f 417/2/6 418/2/6 419/2/6
f 419/2/6 418/2/6 420/2/6
f 421/2/6 422/2/6 423/2/6
f 423/2/6 422/2/6 424/2/6
f 425/2/6 426/2/6 429/2/6
f 426/1/6 427/1/6 430/1/6
f 429/2/6 426/2/6 430/2/6
f 427/2/6 428/2/6 431/2/6
f 430/1/6 427/1/6 431/1/6
f 431/2/6 428/2/6 432/2/6
f 433/2/6 434/2/6 435/2/6
f 435/2/6 434/2/6 436/2/6
f 433/2/6 435/2/6 437/2/6
f 435/1/6 436/1/6 438/1/6
f 437/2/6 435/2/6 438/2/6
f 438/1/6 436/1/6 439/1/6
f 439/1/6 436/1/6 440/1/6
f 436/2/6 434/2/6 441/2/6
f 440/1/6 436/1/6 441/1/6
f 441/2/6 434/2/6 442/2/6
f 437/1/6 438/1/6 443/1/6
f 438/2/6 439/2/6 443/2/6
f 439/1/6 440/1/6 444/1/6
f 443/2/6 439/2/6 444/2/6
f 444/1/6 440/1/6 445/1/6
f 445/1/6 440/1/6 446/1/6
f 440/2/6 441/2/6 447/2/6
f 446/1/6 440/1/6 447/1/6
f 441/1/6 442/1/6 448/1/6
f 447/2/6 441/2/6 448/2/6
f 443/1/6 444/1/6 449/1/6
f 444/2/6 445/2/6 449/2/6
f 445/1/6 446/1/6 450/1/6
f 449/2/6 445/2/6 450/2/6
f 446/2/6 447/2/6 451/2/6
f 450/1/6 446/1/6 451/1/6
f 447/1/6 448/1/6 452/1/6
f 451/2/6 447/2/6 452/2/6
f 449/1/6 450/1/6 453/1/6
f 443/1/6 449/1/6 453/1/6
f 450/2/6 451/2/6 454/2/6
f 453/1/6 450/1/6 454/1/6
f 451/1/6 452/1/6 455/1/6
f 454/2/6 451/2/6 455/2/6
f 452/1/6 448/1/6 456/1/6
f 455/1/6 452/1/6 456/1/6
f 437/1/6 443/1/6 457/1/6
f 443/1/6 453/1/6 457/1/6
f 453/2/6 454/2/6 458/2/6
f 457/1/6 453/1/6 458/1/6
f 454/1/6 455/1/6 459/1/6
f 458/2/6 454/2/6 459/2/6
f 455/2/6 456/2/6 460/2/6
f 459/1/6 455/1/6 460/1/6
f 456/1/6 448/1/6 461/1/6
f 460/2/6 456/2/6 461/2/6
f 448/1/6 442/1/6 462/1/6
f 461/1/6 448/1/6 462/1/6
f 433/2/6 437/2/6 463/2/6
f 437/1/6 457/1/6 463/1/6
f 457/2/6 458/2/6 464/2/6
f 463/1/6 457/1/6 464/1/6
f 459/1/6 460/1/6 465/1/6
f 464/2/6 458/2/6 465/2/6
f 460/1/6 461/1/6 465/1/6
f 458/1/6 459/1/6 465/1/6
f 461/2/6 462/2/6 466/2/6
f 465/1/6 461/1/6 466/1/6
f 462/1/6 442/1/6 467/1/6
f 466/2/6 462/2/6 467/2/6
f 442/2/6 434/2/6 468/2/6
f 467/1/6 442/1/6 468/1/6
f 463/2/6 464/2/6 469/2/6
f 465/1/6 466/1/6 469/1/6
f 466/1/6 467/1/6 469/1/6
f 464/1/6 465/1/6 469/1/6
f 467/2/6 468/2/6 470/2/6
f 469/1/6 467/1/6 470/1/6
f 463/2/6 469/2/6 471/2/6
f 433/2/6 463/2/6 471/2/6
f 469/2/6 470/2/6 471/2/6
f 468/2/6 434/2/6 472/2/6
f 471/2/6 470/2/6 472/2/6
f 470/2/6 468/2/6 472/2/6
